<svg width="557" height="139" viewBox="0 0 557 139" fill="none" xmlns="http://www.w3.org/2000/svg">
<g filter="url(#filter0_d_0_1)">
<path d="M111.179 39.0098C116.625 42.0637 116.63 49.9007 111.187 52.9608L58.4639 82.6063C53.1329 85.6039 46.5465 81.7537 46.543 75.6377L46.5089 16.4073C46.5053 10.2914 53.0873 6.43357 58.4218 9.42498L111.179 39.0098Z" fill="url(#paint0_linear_0_1)"/>
</g>
<g filter="url(#filter1_d_0_1)">
<path d="M111.179 82.0098C116.625 85.0637 116.63 92.9007 111.187 95.9608L58.4639 125.606C53.1329 128.604 46.5465 124.754 46.543 118.638L46.5089 59.4073C46.5053 53.2914 53.0873 49.4336 58.4218 52.425L111.179 82.0098Z" fill="url(#paint1_linear_0_1)"/>
</g>
<g filter="url(#filter2_d_0_1)">
<path d="M78.3138 62.2812C83.1596 65.4343 83.1636 72.5282 78.3215 75.6869L34.5604 104.234C29.2408 107.704 22.1931 103.89 22.1894 97.5384L22.1566 40.4943C22.1529 34.143 29.1963 30.3203 34.5198 33.7843L78.3138 62.2812Z" fill="#55FC10"/>
</g>
<g filter="url(#filter3_d_0_1)">
<path d="M163.735 91.78C157.972 91.78 153.443 89.895 150.15 86.125C146.857 82.355 145.21 76.5483 145.21 68.705C145.21 60.8183 146.857 55.0117 150.15 51.285C153.443 47.515 157.972 45.63 163.735 45.63C169.498 45.63 174.027 47.515 177.32 51.285C180.613 55.0117 182.26 60.8183 182.26 68.705C182.26 76.5483 180.613 82.355 177.32 86.125C174.027 89.895 169.498 91.78 163.735 91.78ZM163.735 84.63C167.072 84.63 169.563 83.3733 171.21 80.86C172.857 78.3033 173.68 74.7933 173.68 70.33V67.08C173.68 62.6167 172.857 59.1283 171.21 56.615C169.563 54.0583 167.072 52.78 163.735 52.78C160.442 52.78 157.95 54.0583 156.26 56.615C154.613 59.1283 153.79 62.6167 153.79 67.08V70.33C153.79 74.7933 154.613 78.3033 156.26 80.86C157.95 83.3733 160.442 84.63 163.735 84.63ZM185.75 91V46.41H204.925C207.265 46.41 209.345 46.8867 211.165 47.84C213.029 48.75 214.48 50.0283 215.52 51.675C216.56 53.3217 217.08 55.25 217.08 57.46C217.08 60.0167 216.409 62.1833 215.065 63.96C213.765 65.6933 212.162 66.9067 210.255 67.6V67.86C212.465 68.5533 214.329 69.875 215.845 71.825C217.362 73.775 218.12 76.18 218.12 79.04C218.12 81.5533 217.514 83.6983 216.3 85.475C215.087 87.2517 213.484 88.6167 211.49 89.57C209.497 90.5233 207.309 91 204.925 91H185.75ZM194.07 83.59H203.56C205.294 83.59 206.724 83.1133 207.85 82.16C209.02 81.2067 209.605 79.82 209.605 78C209.605 76.2667 209.064 74.815 207.98 73.645C206.94 72.4317 205.337 71.825 203.17 71.825H194.07V83.59ZM194.07 64.48H202.65C204.644 64.48 206.117 63.9383 207.07 62.855C208.067 61.7283 208.565 60.4283 208.565 58.955C208.565 57.265 208.045 55.9867 207.005 55.12C206.009 54.2533 204.687 53.82 203.04 53.82H194.07V64.48ZM221.617 91V46.41H240.272C244.779 46.41 248.18 47.6233 250.477 50.05C252.774 52.4333 253.922 55.4667 253.922 59.15C253.922 61.8367 253.25 64.1767 251.907 66.17C250.564 68.1633 248.744 69.6367 246.447 70.59L255.027 91H245.992L238.582 72.41H229.937V91H221.617ZM229.937 65.065H239.102C241.139 65.065 242.612 64.545 243.522 63.505C244.475 62.465 244.952 61.0133 244.952 59.15C244.952 57.5033 244.497 56.2033 243.587 55.25C242.72 54.2967 241.334 53.82 239.427 53.82H229.937V65.065ZM272.824 91.78C268.057 91.78 264.309 90.545 261.579 88.075C258.892 85.5617 257.549 81.8783 257.549 77.025V46.41H265.869V76.765C265.869 79.3217 266.475 81.2717 267.689 82.615C268.902 83.9583 270.614 84.63 272.824 84.63C275.034 84.63 276.745 83.9583 277.959 82.615C279.215 81.2717 279.844 79.3217 279.844 76.765V46.41H288.164V77.025C288.164 81.8783 286.799 85.5617 284.069 88.075C281.339 90.545 277.59 91.78 272.824 91.78ZM293.351 91V46.41H300.696L314.476 70.98C314.736 71.3267 315.017 71.8467 315.321 72.54C315.624 73.19 315.884 73.7967 316.101 74.36C316.361 74.88 316.491 75.14 316.491 75.14L316.686 74.945C316.686 74.945 316.686 74.685 316.686 74.165C316.686 73.645 316.664 73.0817 316.621 72.475C316.621 71.8683 316.621 71.4567 316.621 71.24V46.41H324.031V91H316.621L302.841 66.43C302.667 66.1267 302.407 65.65 302.061 65C301.757 64.3067 301.476 63.6783 301.216 63.115C300.956 62.5517 300.826 62.27 300.826 62.27L300.566 62.465C300.566 62.465 300.566 62.7033 300.566 63.18C300.609 63.6133 300.631 64.1333 300.631 64.74C300.674 65.3033 300.696 65.78 300.696 66.17V91H293.351ZM346.052 91.78C340.289 91.78 335.761 89.895 332.467 86.125C329.174 82.355 327.527 76.5483 327.527 68.705C327.527 60.8183 329.174 55.0117 332.467 51.285C335.761 47.515 340.289 45.63 346.052 45.63C351.816 45.63 356.344 47.515 359.637 51.285C362.931 55.0117 364.577 60.8183 364.577 68.705C364.577 76.5483 362.931 82.355 359.637 86.125C356.344 89.895 351.816 91.78 346.052 91.78ZM346.052 84.63C349.389 84.63 351.881 83.3733 353.527 80.86C355.174 78.3033 355.997 74.7933 355.997 70.33V67.08C355.997 62.6167 355.174 59.1283 353.527 56.615C351.881 54.0583 349.389 52.78 346.052 52.78C342.759 52.78 340.267 54.0583 338.577 56.615C336.931 59.1283 336.107 62.6167 336.107 67.08V70.33C336.107 74.7933 336.931 78.3033 338.577 80.86C340.267 83.3733 342.759 84.63 346.052 84.63ZM383.603 91.78C378.143 91.78 373.896 89.9167 370.863 86.19C367.873 82.4633 366.378 76.635 366.378 68.705C366.378 60.8183 368.024 55.0117 371.318 51.285C374.611 47.515 379.269 45.63 385.293 45.63C388.283 45.63 391.078 46.2583 393.678 47.515C396.278 48.7717 398.358 50.6133 399.918 53.04C401.521 55.4667 402.323 58.4567 402.323 62.01H393.808C393.808 58.9767 392.941 56.68 391.208 55.12C389.518 53.56 387.459 52.78 385.033 52.78C381.566 52.78 379.009 54.0583 377.363 56.615C375.759 59.1283 374.958 62.6167 374.958 67.08V70.33C374.958 74.88 375.781 78.4117 377.428 80.925C379.074 83.395 381.631 84.63 385.098 84.63C387.654 84.63 389.734 83.655 391.338 81.705C392.984 79.755 393.808 77.155 393.808 73.905V70.785L397.318 73.905H383.798V66.755H402.323V91H396.928L395.498 86.06C394.068 87.9233 392.313 89.3533 390.233 90.35C388.153 91.3033 385.943 91.78 383.603 91.78ZM423.753 91.78C417.989 91.78 413.461 89.895 410.168 86.125C406.874 82.355 405.228 76.5483 405.228 68.705C405.228 60.8183 406.874 55.0117 410.168 51.285C413.461 47.515 417.989 45.63 423.753 45.63C429.516 45.63 434.044 47.515 437.338 51.285C440.631 55.0117 442.278 60.8183 442.278 68.705C442.278 76.5483 440.631 82.355 437.338 86.125C434.044 89.895 429.516 91.78 423.753 91.78ZM423.753 84.63C427.089 84.63 429.581 83.3733 431.228 80.86C432.874 78.3033 433.698 74.7933 433.698 70.33V67.08C433.698 62.6167 432.874 59.1283 431.228 56.615C429.581 54.0583 427.089 52.78 423.753 52.78C420.459 52.78 417.968 54.0583 416.278 56.615C414.631 59.1283 413.808 62.6167 413.808 67.08V70.33C413.808 74.7933 414.631 78.3033 416.278 80.86C417.968 83.3733 420.459 84.63 423.753 84.63ZM445.313 91V46.41H457.013L462.538 70.98C462.711 71.7167 462.885 72.6483 463.058 73.775C463.275 74.9017 463.47 76.0283 463.643 77.155C463.86 78.2383 464.011 79.17 464.098 79.95C464.228 80.6867 464.293 81.055 464.293 81.055H464.553C464.553 81.055 464.596 80.665 464.683 79.885C464.813 79.105 464.943 78.1517 465.073 77.025C465.246 75.855 465.42 74.7283 465.593 73.645C465.766 72.5183 465.918 71.63 466.048 70.98L471.508 46.41H482.818V91H475.148V62.595C475.148 62.075 475.17 61.425 475.213 60.645C475.256 59.865 475.278 59.085 475.278 58.305C475.321 57.4817 475.365 56.81 475.408 56.29C475.451 55.7267 475.473 55.445 475.473 55.445H475.213C475.083 56.0083 474.953 56.5933 474.823 57.2C474.693 57.7633 474.563 58.3483 474.433 58.955C474.303 59.5183 474.173 60.1033 474.043 60.71C473.913 61.2733 473.783 61.8583 473.653 62.465L467.413 91H460.198L453.893 62.335C453.763 61.7717 453.633 61.2083 453.503 60.645C453.373 60.0383 453.243 59.4533 453.113 58.89C452.983 58.3267 452.853 57.7633 452.723 57.2C452.593 56.5933 452.463 56.0083 452.333 55.445H452.073C452.073 55.445 452.095 55.7267 452.138 56.29C452.181 56.8533 452.203 57.5467 452.203 58.37C452.246 59.1933 452.29 59.995 452.333 60.775C452.376 61.555 452.398 62.1617 452.398 62.595V91H445.313ZM487.538 91V46.41H515.943V53.82H495.858V64.48H513.083V71.89H495.858V83.59H516.333V91H487.538ZM533.94 91.78C531.21 91.78 528.675 91.26 526.335 90.22C523.995 89.18 522.11 87.6417 520.68 85.605C519.25 83.525 518.535 80.9683 518.535 77.935C518.535 77.675 518.535 77.415 518.535 77.155C518.578 76.895 518.6 76.6783 518.6 76.505H527.245C527.245 76.5483 527.223 76.7 527.18 76.96C527.18 77.1767 527.18 77.3717 527.18 77.545C527.18 79.6683 527.808 81.38 529.065 82.68C530.322 83.98 532.077 84.63 534.33 84.63C536.843 84.63 538.598 84.0883 539.595 83.005C540.592 81.8783 541.09 80.665 541.09 79.365C541.09 77.8483 540.7 76.635 539.92 75.725C539.14 74.815 538.1 74.0783 536.8 73.515C535.543 72.9083 534.135 72.3667 532.575 71.89C531.058 71.4133 529.52 70.8717 527.96 70.265C526.4 69.6583 524.97 68.8783 523.67 67.925C522.413 66.9283 521.395 65.65 520.615 64.09C519.835 62.53 519.445 60.5367 519.445 58.11C519.445 55.2933 520.138 52.975 521.525 51.155C522.912 49.2917 524.732 47.905 526.985 46.995C529.282 46.085 531.73 45.63 534.33 45.63C536.973 45.63 539.378 46.085 541.545 46.995C543.755 47.905 545.51 49.335 546.81 51.285C548.153 53.1917 548.825 55.6833 548.825 58.76V59.54H540.31V58.955C540.31 57.0483 539.768 55.5533 538.685 54.47C537.645 53.3433 536.172 52.78 534.265 52.78C532.272 52.78 530.733 53.235 529.65 54.145C528.567 55.0117 528.025 56.1383 528.025 57.525C528.025 58.825 528.415 59.865 529.195 60.645C529.975 61.425 530.993 62.075 532.25 62.595C533.55 63.115 534.98 63.6133 536.54 64.09C538.1 64.5233 539.638 65.0433 541.155 65.65C542.715 66.2567 544.123 67.0583 545.38 68.055C546.68 69.0083 547.72 70.265 548.5 71.825C549.28 73.3417 549.67 75.27 549.67 77.61C549.67 81.0333 548.998 83.785 547.655 85.865C546.312 87.9017 544.448 89.3967 542.065 90.35C539.725 91.3033 537.017 91.78 533.94 91.78Z" fill="#E1DEDE"/>
</g>
<defs>
<filter id="filter0_d_0_1" x="41.8089" y="7.69111" width="78.1575" height="84.6535" filterUnits="userSpaceOnUse" color-interpolation-filters="sRGB">
<feFlood flood-opacity="0" result="BackgroundImageFix"/>
<feColorMatrix in="SourceAlpha" type="matrix" values="0 0 0 0 0 0 0 0 0 0 0 0 0 0 0 0 0 0 127 0" result="hardAlpha"/>
<feOffset dy="4"/>
<feGaussianBlur stdDeviation="2.35"/>
<feComposite in2="hardAlpha" operator="out"/>
<feColorMatrix type="matrix" values="0 0 0 0 0 0 0 0 0 0 0 0 0 0 0 0 0 0 0.25 0"/>
<feBlend mode="normal" in2="BackgroundImageFix" result="effect1_dropShadow_0_1"/>
<feBlend mode="normal" in="SourceGraphic" in2="effect1_dropShadow_0_1" result="shape"/>
</filter>
<filter id="filter1_d_0_1" x="41.8089" y="50.6911" width="78.1575" height="84.6535" filterUnits="userSpaceOnUse" color-interpolation-filters="sRGB">
<feFlood flood-opacity="0" result="BackgroundImageFix"/>
<feColorMatrix in="SourceAlpha" type="matrix" values="0 0 0 0 0 0 0 0 0 0 0 0 0 0 0 0 0 0 127 0" result="hardAlpha"/>
<feOffset dy="4"/>
<feGaussianBlur stdDeviation="2.35"/>
<feComposite in2="hardAlpha" operator="out"/>
<feColorMatrix type="matrix" values="0 0 0 0 0 0 0 0 0 0 0 0 0 0 0 0 0 0 0.25 0"/>
<feBlend mode="normal" in2="BackgroundImageFix" result="effect1_dropShadow_0_1"/>
<feBlend mode="normal" in="SourceGraphic" in2="effect1_dropShadow_0_1" result="shape"/>
</filter>
<filter id="filter2_d_0_1" x="22.1566" y="32.4766" width="67.794" height="81.0704" filterUnits="userSpaceOnUse" color-interpolation-filters="sRGB">
<feFlood flood-opacity="0" result="BackgroundImageFix"/>
<feColorMatrix in="SourceAlpha" type="matrix" values="0 0 0 0 0 0 0 0 0 0 0 0 0 0 0 0 0 0 127 0" result="hardAlpha"/>
<feOffset dx="4" dy="4"/>
<feGaussianBlur stdDeviation="2"/>
<feComposite in2="hardAlpha" operator="out"/>
<feColorMatrix type="matrix" values="0 0 0 0 0 0 0 0 0 0 0 0 0 0 0 0 0 0 0.25 0"/>
<feBlend mode="normal" in2="BackgroundImageFix" result="effect1_dropShadow_0_1"/>
<feBlend mode="normal" in="SourceGraphic" in2="effect1_dropShadow_0_1" result="shape"/>
</filter>
<filter id="filter3_d_0_1" x="140.71" y="41.13" width="415.46" height="57.15" filterUnits="userSpaceOnUse" color-interpolation-filters="sRGB">
<feFlood flood-opacity="0" result="BackgroundImageFix"/>
<feColorMatrix in="SourceAlpha" type="matrix" values="0 0 0 0 0 0 0 0 0 0 0 0 0 0 0 0 0 0 127 0" result="hardAlpha"/>
<feOffset dx="1" dy="1"/>
<feGaussianBlur stdDeviation="2.75"/>
<feComposite in2="hardAlpha" operator="out"/>
<feColorMatrix type="matrix" values="0 0 0 0 1 0 0 0 0 1 0 0 0 0 1 0 0 0 0.25 0"/>
<feBlend mode="normal" in2="BackgroundImageFix" result="effect1_dropShadow_0_1"/>
<feBlend mode="normal" in="SourceGraphic" in2="effect1_dropShadow_0_1" result="shape"/>
</filter>
<linearGradient id="paint0_linear_0_1" x1="72.1904" y1="-3.97042" x2="72.248" y2="95.9858" gradientUnits="userSpaceOnUse">
<stop stop-color="#55FC10"/>
<stop offset="1" stop-color="#F8FBF7"/>
</linearGradient>
<linearGradient id="paint1_linear_0_1" x1="72.1904" y1="39.0296" x2="72.248" y2="138.986" gradientUnits="userSpaceOnUse">
<stop stop-color="#55FC10"/>
<stop offset="1" stop-color="#F8FBF7"/>
</linearGradient>
</defs>
</svg>
